PathFileType	4	(X/Y/Z)	C:/Users/cpontonn/Documents/TRAVAIL - COURS/FORMATION DOCTORALE/COURS AUTOMNE/TP OPENSIM/ESCRIME DATA/C3Ds/Trial011.trc	
DataRate	CameraRate	NumFrames	NumMarkers	Units	OrigDataRate	OrigDataStartFrame	OrigNumFrames	
250.00	250.00	4	54	mm	250.00	297	790	
Frame#	Time	Sword:Root4			Screen:LBot			Screen:RBot			Screen:LTop			Screen:RTop			Screen:MTop			Sword:Root1			Sword:Root2			Sword:Root3			Sword:Root5			Sword:Root6			Sword:STip			LFHD			LBHD			RFHD			RBHD			C7			T10			CLAV			STRN			LSHO			LRAD			LHUM			LWRB			LWRA			RSHO			RBAC			RUPA			RRAD			RHUM			RWRB			RWRA			RCAR			LFWT			LBWT			RFWT			RBWT			LKNE			LKNI			LANE			LANI			LHEE			LTAR			LTARI			LTOE			RTHI			RKNE			RKNI			RANE			RANI			RHEE			RTAR			RTARI			RTOE			
		X1	Y1	Z1	X2	Y2	Z2	X3	Y3	Z3	X4	Y4	Z4	X5	Y5	Z5	X6	Y6	Z6	X7	Y7	Z7	X8	Y8	Z8	X9	Y9	Z9	X10	Y10	Z10	X11	Y11	Z11	X12	Y12	Z12	X13	Y13	Z13	X14	Y14	Z14	X15	Y15	Z15	X16	Y16	Z16	X17	Y17	Z17	X18	Y18	Z18	X19	Y19	Z19	X20	Y20	Z20	X21	Y21	Z21	X22	Y22	Z22	X23	Y23	Z23	X24	Y24	Z24	X25	Y25	Z25	X26	Y26	Z26	X27	Y27	Z27	X28	Y28	Z28	X29	Y29	Z29	X30	Y30	Z30	X31	Y31	Z31	X32	Y32	Z32	X33	Y33	Z33	X34	Y34	Z34	X35	Y35	Z35	X36	Y36	Z36	X37	Y37	Z37	X38	Y38	Z38	X39	Y39	Z39	X40	Y40	Z40	X41	Y41	Z41	X42	Y42	Z42	X43	Y43	Z43	X44	Y44	Z44	X45	Y45	Z45	X46	Y46	Z46	X47	Y47	Z47	X48	Y48	Z48	X49	Y49	Z49	X50	Y50	Z50	X51	Y51	Z51	X52	Y52	Z52	X53	Y53	Z53	X54	Y54	Z54	

297	1.184	154.64284	1835.47400	1050.59253	-1670.97107	3506.22900	29.36767	2281.40430	3509.45117	31.95662	-1652.55859	3517.65723	2206.17212	2272.67480	3511.72729	2215.29907	-472.40338	3518.39014	2201.37915	205.49759	1879.79773	1035.67139	222.55354	2221.25513	1002.62854	268.70529	1796.38672	1013.28040	119.54749	1787.81677	1029.29578	191.42554	1821.27319	976.45453	230.67499	2698.61133	855.73785	215.16499	1164.27417	1477.71008	192.47958	1071.34802	1440.65894	430.80014	1148.44678	1485.76050	430.43781	1038.45239	1431.51855	239.46153	1003.28949	1301.90283	148.67296	955.50281	1045.21082	358.07529	1099.25989	1199.06323	374.58612	1100.69983	1039.85718	185.60822	1199.60486	1239.71167	132.52309	1432.04590	1058.57410	179.95634	1408.46436	1005.02820	175.34772	1687.88745	967.76392	189.24269	1697.90869	1068.36511	399.72342	887.64899	1250.60193	249.45453	860.71942	1189.17285	517.92297	817.26337	1082.58398	535.74451	729.01086	1008.58032	479.41541	753.29755	938.16681	713.35730	931.63080	992.10602	645.50592	972.92126	1045.62000	722.68323	988.34094	1070.52197	231.47292	1158.56848	815.65051	120.22676	962.11548	826.16870	380.53897	977.39532	817.26660	162.24699	904.05792	831.79517	188.18408	1434.26147	500.55179	327.18967	1404.63647	465.82895	161.12938	1333.53479	108.78483	254.71782	1309.68286	116.87128	179.73637	1246.90845	70.88456	182.34900	1464.23828	39.36621	284.84491	1429.54028	51.04144	279.21497	1509.21118	50.51020	548.31909	861.59772	484.14786	499.41641	767.89026	419.36920	500.84619	894.71112	348.75537	207.32628	687.72186	118.59973	254.30922	761.10236	65.33401	152.88229	739.62671	67.77969	307.11694	583.48413	55.38192	355.16733	686.63361	41.61001	404.82779	628.31879	50.14312 
298	1.188	156.25185	1837.70593	1048.73914	-1670.94824	3506.25977	29.35512	2281.47070	3509.47827	31.86157	-1652.62622	3517.52832	2206.19238	2272.65723	3511.73682	2215.30396	-472.41031	3518.42871	2201.41064	207.01123	1882.04626	1033.67285	224.00093	2223.27686	999.62366	270.61063	1798.59204	1011.91968	121.10674	1789.77808	1027.71863	193.46803	1823.10999	974.69513	235.24005	2702.94214	859.12219	215.34631	1164.85437	1477.03943	192.63115	1071.89685	1440.01099	431.02112	1148.97217	1485.05493	430.57474	1038.93689	1430.79309	239.49814	1003.96179	1301.15662	148.09624	957.56244	1044.36328	358.37265	1099.78259	1198.48132	375.01294	1101.38257	1039.20605	186.73199	1200.94519	1239.25415	135.18423	1433.56641	1059.04407	183.60538	1410.29077	1005.42554	177.37477	1689.52954	967.18665	191.05173	1700.27148	1067.74426	398.96960	888.16010	1249.86560	248.57834	861.99200	1187.84033	518.68622	817.27759	1083.24146	536.88464	729.19556	1009.35272	481.55902	754.33746	938.17218	715.77081	931.29266	995.39996	648.04138	972.41980	1048.59192	724.80920	987.45795	1074.19177	231.32417	1161.10364	814.83624	119.19041	965.08545	825.46899	379.84509	979.62756	816.59741	161.30170	906.90167	830.89362	187.95398	1437.77271	500.63333	326.69058	1407.98169	465.93887	161.13373	1334.66736	110.00652	254.78972	1310.96399	118.19330	179.82182	1247.72949	73.06544	182.28781	1464.44910	39.28856	285.03308	1430.04785	50.90826	279.34186	1509.60254	50.01175	547.74384	863.14221	484.00000	498.57474	769.32910	419.65192	500.60648	895.71124	348.24274	207.50052	687.92676	118.47885	254.25951	761.17200	65.10816	152.84760	739.60382	67.70993	307.20981	583.44208	55.38813	355.14194	686.63593	41.62729	404.81808	628.33423	50.15376 
299	1.192	157.64095	1839.91003	1046.89771	-1670.89661	3506.23364	29.38628	2281.29468	3509.39404	31.92965	-1652.64294	3517.51978	2206.15601	2272.65625	3511.73682	2215.31934	-472.52222	3518.29517	2201.36230	208.40579	1884.19238	1031.59827	225.23389	2225.35034	996.67963	272.02991	1800.70239	1010.68982	122.70936	1791.91211	1026.11707	195.17279	1824.93555	972.97662	239.91499	2707.09229	862.97028	215.51073	1165.42761	1476.40247	192.76202	1072.49353	1439.37354	431.18945	1149.50061	1484.34375	430.70471	1039.48193	1430.08508	239.52350	1004.64667	1300.36206	147.52699	959.60303	1043.49719	358.73602	1100.41040	1197.88293	375.34592	1102.08350	1038.56042	187.74132	1202.15649	1238.77209	137.70586	1435.16797	1059.25879	186.93953	1412.18372	1005.84485	179.14041	1691.15442	966.61871	192.74570	1702.52490	1066.99854	398.34204	888.69104	1249.08240	247.85927	863.17816	1186.52515	519.28558	817.34509	1083.86023	537.96466	729.36346	1010.05536	483.64172	755.49744	938.31281	718.11725	930.91064	998.57025	650.22021	972.16077	1051.47498	727.11707	986.48877	1077.80359	231.30054	1163.59204	813.99097	118.07691	968.12268	824.76245	379.16162	981.83630	815.95538	160.34872	909.80444	830.03131	187.71696	1441.43262	500.90906	326.06693	1411.48425	466.20425	161.15051	1335.89429	111.46732	254.77431	1312.30298	119.76690	180.00470	1248.62720	75.46869	182.29401	1464.67456	39.18768	285.10150	1430.57617	50.94203	279.48340	1509.99048	49.55212	547.20874	864.73383	483.84885	497.87589	770.75171	419.85690	500.23608	897.02301	347.89874	207.41705	688.15485	118.46635	254.21272	761.23492	64.89929	152.87027	739.58160	67.63895	307.18353	583.46985	55.54358	355.15335	686.65613	41.60059	404.81747	628.38092	50.17385 
300	1.196	158.93890	1842.01880	1044.98584	-1670.91931	3506.25610	29.35582	2281.44629	3509.49243	31.91549	-1652.63953	3517.60010	2206.23804	2272.66699	3511.71680	2215.35864	-472.42532	3518.62476	2201.57104	209.69814	1886.30737	1029.50916	226.61964	2227.10522	993.85999	273.74631	1802.88721	1009.16461	124.12539	1793.84009	1024.40845	196.64548	1826.62158	971.24188	244.42973	2711.02441	867.03058	215.72467	1166.10706	1475.75720	192.91428	1073.14880	1438.74927	431.37149	1150.10461	1483.55750	430.84482	1040.08508	1429.33203	239.59854	1005.33514	1299.51550	146.99883	961.71936	1042.66162	359.00073	1101.02698	1197.28320	375.62552	1102.82971	1037.85046	188.66438	1203.23022	1238.33813	140.05869	1436.88489	1059.33643	190.24858	1414.12988	1006.16022	180.96054	1692.77966	965.83142	194.57985	1704.79602	1066.17419	397.69580	889.21967	1248.24036	247.31593	864.35120	1185.19666	519.82697	817.36914	1084.46753	538.99298	729.56366	1010.69061	485.61200	756.62164	938.52222	720.20471	930.59308	1001.91779	652.05457	971.99188	1054.39844	729.05603	985.77582	1081.31128	231.35103	1166.09937	813.14624	116.88291	971.26697	824.00134	378.63785	983.92310	815.08850	159.45370	912.75916	829.19519	187.51175	1445.30164	501.42194	325.34583	1415.12708	466.62411	161.09373	1337.29797	113.08591	254.74933	1313.95776	121.61208	179.93741	1249.73132	78.30190	182.26222	1464.95935	39.12764	285.18820	1431.16870	51.04069	279.54449	1510.37268	49.09221	546.66272	866.41541	483.69339	497.30902	772.34161	420.03247	499.90295	898.31354	347.49719	207.51785	688.31671	118.40881	254.30975	761.30048	64.52325	152.85690	739.58734	67.53612	307.21057	583.46930	55.65212	355.16571	686.66394	41.58509	404.93643	628.35571	50.09735 
